PathFileType	4	(X/Y/Z)	/home/abdul/Desktop/myosuite/custom_workspace/IK/output/S16_12_1.trc
DataRate	CameraRate	NumFrames	NumMarkers	Units	OrigDataRate	OrigDataStartFrame	OrigNumFrames
200.0	200.0	33	3	mm	200.0	1	1216
Frame#	Time	V_Shoulder			V_Elbow			V_Wrist		
		X1	Y1	Z1	X2	Y2	Z2	X3	Y3	Z3

1	0.0	-142.91414245777798	606.0586749666088	278.85672849276517	-252.43421790647108	510.8543980041509	-0.3590536235927928	-223.45449107852903	348.12016086085356	25.67753497989104
2	0.005	-142.91218503119958	606.0673317914276	278.87508755254845	-252.44131283357308	510.85175937819605	-0.3557878622384649	-223.4587480403656	348.1230124604751	25.69865828300526
3	0.01	-142.91047228874365	606.0761299914001	278.89318486664575	-252.44864829094854	510.8484935626309	-0.3520605021469265	-223.4624469970161	348.12508927452285	25.721015044215513
4	0.015	-142.90902788142952	606.0850588062599	278.9109622937831	-252.45620237226598	510.84458027896625	-0.3478801138255676	-223.46554983042944	348.1263448769854	25.744578535608568
5	0.02	-142.90787580269043	606.0941070320325	278.92836076411066	-252.4639510749564	510.8400008058095	-0.3432580361845279	-223.46801913569792	348.12673390427227	25.76931592135627
6	0.025	-142.90704032064443	606.103263047978	278.94532044107723	-252.471868294	510.83473813391976	-0.33820846494153756	-223.46981841167218	348.126212293511	25.795188088772342
7	0.03	-142.9065459063643	606.1125148454363	278.9617808901046	-252.4799258242088	510.8287771223591	-0.3327485324021726	-223.47091225724483	348.12473752744586	25.822149496175577
8	0.035	-142.9064171582253	606.121850058522	278.9776812536508	-252.4880933714242	510.8221046551626	-0.3268983778302239	-223.47126657278264	348.1222688852683	25.85014803901423
9	0.04	-142.9066787224235	606.1312559966217	278.9929604322315	-252.49633857302877	510.8147097979154	-0.32068120762845176	-223.4708487661398	348.11876769864966	25.879124935709722
10	0.045	-142.90735520976793	606.1407196786375	279.0075572709541	-252.504627028156	510.80658395359063	-0.314123344558908	-223.46962796263875	348.114197612188	25.90901463467556
11	0.05	-142.90847110886375	606.1502278689163	279.02141075110507	-252.51292233795817	510.7977210169704	-0.3072542652445396	-223.46757521835787	348.108524847423	25.939744743959388
12	0.055	-142.9100506958124	606.1597671148011	279.03446018631774	-252.52118615627097	510.7881175269358	-0.3001066252098088	-223.46466373601822	348.1017184695131	25.971235984941977
13	0.06	-142.91211794056895	606.169323785734	279.0466454228402	-252.52937825098587	510.77777281588493	-0.2927162707377722	-223.46086908271758	348.093750655613	26.003402171506394
14	0.065	-142.91469641010616	606.1788841138383	279.05790704340944	-252.5374565764131	510.7666891555058	-0.28512223684445637	-223.45616940871156	348.08459696393084	26.036150216063255
15	0.07	-142.91780916854654	606.1884342358975	279.0681865742318	-252.54537735688825	510.7548718981043	-0.27736673069846773	-223.45054566640061	348.07423660239226	26.069380163783787
16	0.075	-142.92147867443475	606.1979602366516	279.07742669456354	-252.5530951818398	510.74232961266046	-0.2694950998445975	-223.44398182863517	348.0626526957823	26.10298525635087
17	0.08	-142.9257266753331	606.2074481933156	279.085571448376	-252.56056311249972	510.7290742147641	-0.2615557846248393	-223.4364651054119	348.0498325501841	26.136852026489375
18	0.085	-142.9305740999345	606.216884221231	279.092566457587	-252.56773280040136	510.71512108955915	-0.25360025422866705	-223.427986157992	348.0357679134853	26.17086042448028
19	0.09	-142.93604094789677	606.2262545205457	279.0983591363331	-252.57455461776533	510.7004892068062	-0.24568292584657847	-223.41853930943353	348.02045523067454	26.204883977798865
20	0.095	-142.9421461776135	606.2355454238204	279.1028989057558	-252.58097779983336	510.68520122716035	-0.23786106644689475	-223.4081227504961	348.0038958926057	26.238789984944486
21	0.1	-142.94890759214658	606.244743444446	279.1061374087678	-252.58695059916147	510.6692835987458	-0.2301946767455405	-223.39673873983745	347.9860964768669	26.27243974444916
22	0.105	-142.95634172355622	606.2538353257594	279.1080287242653	-252.59242045183703	510.65276664310096	-0.22274635699195144	-223.38439379739492	347.9670689793529	26.305688819963
23	0.11	-142.96446371587334	606.2628080907335	279.10852958024867	-252.59733415553347	510.6356846295639	-0.21558115425129465	-223.3710988898123	347.9468310351052	26.338387342217697
24	0.115	-142.97328720697072	606.2716490921142	279.1075995653106	-252.60163805926243	510.61807583716325	-0.20876639092389127	-223.3568696067492	347.9254061269527	26.37038034856357
25	0.12	-142.98282420959677	606.2803460628687	279.105201337951	-252.60527826463021	510.59998260308424	-0.2023714743068048	-223.34172632688768	347.9028237804614	26.40150816066202
26	0.125	-142.99308499184716	606.2888871668096	279.10130083317637	-252.60820083834767	510.58145135678683	-0.19646768707014495	-223.32569437243137	347.87911974368166	26.431606800793073
27	0.13	-143.00407795735723	606.2972610492479	279.09586746583886	-252.61035203568434	510.5625326388616	-0.1911279585913821	-223.30880415087927	347.8543361501598	26.460508447107408
28	0.135	-143.01580952550685	606.3054568875247	279.08887433017327	-252.61167853449854	510.5432811037267	-0.18642661716486408	-223.29109128284526	347.828521663677	26.48804192801387
29	0.14	-143.02828401193906	606.3134644412668	279.0802983949877	-252.61212767941322	510.52375550528717	-0.18243912318061106	-223.27259671468929	347.80173160316866	26.514033255747183
30	0.145	-143.04150350969925	606.3212741022058	279.07012069396666	-252.61164773564474	510.50401866470594	-0.1792417834460185	-223.25336681472476	347.77402804627843	26.53830619900644
31	0.15	-143.05546777131147	606.3288769433962	279.0583265105449	-252.61018815192864	510.4841374194639	-0.17691144690634175	-223.23345345177069	347.7454799100099	26.560682894393583
32	0.155	-143.07017409211372	606.3362647676583	279.04490555681446	-252.60769983192318	510.4641825529217	-0.175525182104316	-223.2129140548269	347.7161630069503	26.580984496212185
33	0.16	-143.08561719518048	606.3434301550789	279.02985214592985	-252.60413541340512	510.444228703638	-0.17515993680591713	-223.191811652666	347.6861600755616	26.5990318640115
